<svg xmlns="http://www.w3.org/2000/svg" viewBox="0 0 512 512">
  <rect width="512" height="512" fill="#1E3A5F"/>
  <path d="M206 96 c-20 26 20 40 0 66 M256 80 c-20 26 20 40 0 66 M306 96 c-20 26 20 40 0 66" stroke="#9FC3E8" stroke-width="12" fill="none" stroke-linecap="round"/>
  <ellipse cx="256" cy="250" rx="160" ry="44" fill="#FFFFFF"/>
  <circle cx="200" cy="232" r="20" fill="#FFFFFF"/><circle cx="240" cy="218" r="24" fill="#FFFFFF"/><circle cx="286" cy="220" r="22" fill="#FFFFFF"/><circle cx="324" cy="236" r="18" fill="#FFFFFF"/>
  <path d="M96 250 h320 c0 100 -70 170 -160 170 s-160 -70 -160 -170 z" fill="#E94F37"/>
  <rect x="206" y="410" width="100" height="22" rx="8" fill="#E94F37"/>
  <circle cx="256" cy="322" r="46" fill="#FFC93C"/>
  <text x="256" y="344" text-anchor="middle" font-family="Arial Black, Arial, sans-serif" font-weight="900" font-size="58" fill="#E94F37">¥</text>
</svg>
